<svg width="326" height="326" xmlns="http://www.w3.org/2000/svg" xmlns:xlink="http://www.w3.org/1999/xlink" xml:space="preserve" overflow="hidden"><defs><clipPath id="clip0"><rect x="398" y="128" width="326" height="326"/></clipPath></defs><g clip-path="url(#clip0)" transform="translate(-398 -128)"><path d="M642.5 246.175 642.5 189.125 615.333 189.125 615.333 220.367 561 168.75 561 168.75 418.375 304.583 433.656 317.487 561 196.596 561 196.596 688.344 317.487 703.625 304.583Z"/><path d="M459.125 312.394 459.125 413.25 540.625 413.25 540.625 328.354 581.375 328.354 581.375 413.25 662.875 413.25 662.875 312.394 561 215.612 459.125 312.394ZM520.25 369.104 479.5 369.104 479.5 328.354 520.25 328.354 520.25 369.104ZM601.75 328.354 642.5 328.354 642.5 369.104 601.75 369.104 601.75 328.354Z"/></g></svg>